<svg width="15" height="15" viewBox="0 0 15 15" fill="none" xmlns="http://www.w3.org/2000/svg">
<path d="M7.49844 0.150391C3.43953 0.150391 0.148438 3.44148 0.148438 7.50039C0.148438 11.5593 3.43953 14.8504 7.49844 14.8504C11.5573 14.8504 14.8484 11.5593 14.8484 7.50039C14.8484 3.44148 11.5573 0.150391 7.49844 0.150391ZM11.2686 5.04274L6.70438 10.8998C6.66828 10.9359 6.60922 11.0146 6.53703 11.0146C6.46156 11.0146 6.41234 10.9621 6.36969 10.9195C6.32703 10.8768 3.78078 8.42898 3.78078 8.42898L3.73156 8.37977C3.71188 8.35023 3.69547 8.31414 3.69547 8.27477C3.69547 8.23539 3.71188 8.1993 3.73156 8.16977C3.74469 8.15664 3.75453 8.1468 3.76766 8.13039C4.02031 7.86461 4.53219 7.32648 4.565 7.29367C4.60766 7.25102 4.64375 7.19523 4.7225 7.19523C4.80453 7.19523 4.85703 7.26414 4.89641 7.30352C4.93578 7.34289 6.37297 8.7243 6.37297 8.7243L10.025 4.03211C10.0578 4.00586 10.0972 3.98617 10.1398 3.98617C10.1825 3.98617 10.2219 4.00258 10.2547 4.02883L11.2588 4.81961C11.285 4.85242 11.3014 4.8918 11.3014 4.93445C11.3047 4.97711 11.2883 5.0132 11.2686 5.04274Z" fill="#24BB0B"/>
</svg>
