<svg width="18" height="18" viewBox="0 0 18 18" fill="none" xmlns="http://www.w3.org/2000/svg">
<rect width="18" height="18" rx="9" fill="white"/>
<path d="M9.0002 2.70001C5.52113 2.70001 2.7002 5.52095 2.7002 9.00001C2.7002 12.4791 5.52113 15.3 9.0002 15.3C12.4793 15.3 15.3002 12.4791 15.3002 9.00001C15.3002 5.52095 12.4793 2.70001 9.0002 2.70001ZM12.2318 6.89345L8.31957 11.9138C8.28863 11.9447 8.23801 12.0122 8.17613 12.0122C8.11145 12.0122 8.06926 11.9672 8.0327 11.9306C7.99613 11.8941 5.81363 9.79595 5.81363 9.79595L5.77145 9.75376C5.75457 9.72845 5.74051 9.69751 5.74051 9.66376C5.74051 9.63001 5.75457 9.59907 5.77145 9.57376C5.7827 9.56251 5.79113 9.55408 5.80238 9.54001C6.01895 9.3122 6.4577 8.85095 6.48582 8.82282C6.52238 8.78626 6.55332 8.73845 6.62082 8.73845C6.69113 8.73845 6.73613 8.79751 6.76988 8.83126C6.80363 8.86501 8.03551 10.0491 8.03551 10.0491L11.1658 6.0272C11.1939 6.0047 11.2277 5.98782 11.2643 5.98782C11.3008 5.98782 11.3346 6.00189 11.3627 6.02439L12.2233 6.7022C12.2458 6.73032 12.2599 6.76407 12.2599 6.80064C12.2627 6.8372 12.2486 6.86814 12.2318 6.89345Z" fill="#24BB0B"/>
</svg>
